<mxfile host="app.diagrams.net" agent="Mozilla/5.0 (Windows NT 10.0; Win64; x64) AppleWebKit/537.36 (KHTML, like Gecko) Chrome/127.0.0.0 Safari/537.36" version="24.7.6">
  <diagram name="Page-1" id="jcBYQMuJ0CC31AL8hXUQ">
    <mxGraphModel dx="2087" dy="2001" grid="1" gridSize="10" guides="1" tooltips="1" connect="1" arrows="1" fold="1" page="0" pageScale="1" pageWidth="827" pageHeight="1169" math="1" shadow="0">
      <root>
        <mxCell id="0" />
        <mxCell id="1" parent="0" />
        <mxCell id="u1z8vQ90xgdDoYZ3Qv9L-179" value="Solutions" style="swimlane;horizontal=0;whiteSpace=wrap;html=1;glass=0;swimlaneHead=0;collapsible=0;strokeWidth=2;swimlaneLine=1;sketch=1;curveFitting=1;jiggle=2;fontSize=20;spacingTop=-4;rounded=0;fontFamily=Architects Daughter;fontSource=https%3A%2F%2Ffonts.gstatic.com%2Fs%2Farchitectsdaughter%2Fv18%2FKtkxAKiDZI_td1Lkx62xHZHDtgO_Y-bvTYlg4w.woff2;swimlaneFillColor=#E6E6E6;hachureGap=5;fillWeight=4;fillColor=none;" vertex="1" parent="1">
          <mxGeometry x="0.5" y="50" width="539.5" height="318" as="geometry" />
        </mxCell>
        <mxCell id="zS9yTGAl7qMEVkvHbWXX-1" value="Decision Matrix" style="swimlane;whiteSpace=wrap;html=1;strokeWidth=2;sketch=1;curveFitting=1;jiggle=2;collapsible=0;fillColor=#CCCCCC;fillStyle=solid;rounded=0;fontFamily=Architects Daughter;fontSource=https%3A%2F%2Ffonts.gstatic.com%2Fs%2Farchitectsdaughter%2Fv18%2FKtkxAKiDZI_td1Lkx62xHZHDtgO_Y-bvTYlg4w.woff2;" vertex="1" parent="u1z8vQ90xgdDoYZ3Qv9L-179">
          <mxGeometry x="87.75" y="30" width="384" height="278" as="geometry">
            <mxRectangle x="670" y="145" width="117" height="26" as="alternateBounds" />
          </mxGeometry>
        </mxCell>
        <mxCell id="u1z8vQ90xgdDoYZ3Qv9L-145" value="" style="shape=table;startSize=0;container=1;collapsible=0;childLayout=tableLayout;strokeWidth=2;sketch=1;curveFitting=1;jiggle=2;rounded=0;" vertex="1" parent="zS9yTGAl7qMEVkvHbWXX-1">
          <mxGeometry x="21" y="41" width="349" height="220" as="geometry" />
        </mxCell>
        <mxCell id="u1z8vQ90xgdDoYZ3Qv9L-146" value="" style="shape=tableRow;horizontal=0;startSize=0;swimlaneHead=0;swimlaneBody=0;strokeColor=inherit;top=0;left=0;bottom=0;right=0;collapsible=0;dropTarget=0;fillColor=none;points=[[0,0.5],[1,0.5]];portConstraint=eastwest;sketch=1;curveFitting=1;jiggle=2;rounded=0;" vertex="1" parent="u1z8vQ90xgdDoYZ3Qv9L-145">
          <mxGeometry width="349" height="73" as="geometry" />
        </mxCell>
        <mxCell id="u1z8vQ90xgdDoYZ3Qv9L-147" value="A bear is chewing on your head." style="shape=partialRectangle;html=1;whiteSpace=wrap;connectable=0;strokeColor=inherit;overflow=hidden;fillColor=none;top=0;left=0;bottom=0;right=0;pointerEvents=1;fontStyle=1;sketch=1;curveFitting=1;jiggle=2;rounded=0;" vertex="1" parent="u1z8vQ90xgdDoYZ3Qv9L-146">
          <mxGeometry width="88" height="73" as="geometry">
            <mxRectangle width="88" height="73" as="alternateBounds" />
          </mxGeometry>
        </mxCell>
        <mxCell id="u1z8vQ90xgdDoYZ3Qv9L-148" value="Put a helmet on" style="shape=partialRectangle;html=1;whiteSpace=wrap;connectable=0;strokeColor=inherit;overflow=hidden;fillColor=none;top=0;left=0;bottom=0;right=0;pointerEvents=1;fontStyle=1;sketch=1;curveFitting=1;jiggle=2;rounded=0;" vertex="1" parent="u1z8vQ90xgdDoYZ3Qv9L-146">
          <mxGeometry x="88" width="87" height="73" as="geometry">
            <mxRectangle width="87" height="73" as="alternateBounds" />
          </mxGeometry>
        </mxCell>
        <mxCell id="u1z8vQ90xgdDoYZ3Qv9L-149" value="Kill the bear" style="shape=partialRectangle;html=1;whiteSpace=wrap;connectable=0;strokeColor=inherit;overflow=hidden;fillColor=none;top=0;left=0;bottom=0;right=0;pointerEvents=1;fontStyle=1;sketch=1;curveFitting=1;jiggle=2;rounded=0;" vertex="1" parent="u1z8vQ90xgdDoYZ3Qv9L-146">
          <mxGeometry x="175" width="86" height="73" as="geometry">
            <mxRectangle width="86" height="73" as="alternateBounds" />
          </mxGeometry>
        </mxCell>
        <mxCell id="u1z8vQ90xgdDoYZ3Qv9L-150" value="Run away" style="shape=partialRectangle;html=1;whiteSpace=wrap;connectable=0;strokeColor=inherit;overflow=hidden;fillColor=none;top=0;left=0;bottom=0;right=0;pointerEvents=1;fontStyle=1;sketch=1;curveFitting=1;jiggle=2;rounded=0;" vertex="1" parent="u1z8vQ90xgdDoYZ3Qv9L-146">
          <mxGeometry x="261" width="88" height="73" as="geometry">
            <mxRectangle width="88" height="73" as="alternateBounds" />
          </mxGeometry>
        </mxCell>
        <mxCell id="u1z8vQ90xgdDoYZ3Qv9L-151" value="" style="shape=tableRow;horizontal=0;startSize=0;swimlaneHead=0;swimlaneBody=0;strokeColor=inherit;top=0;left=0;bottom=0;right=0;collapsible=0;dropTarget=0;fillColor=none;points=[[0,0.5],[1,0.5]];portConstraint=eastwest;sketch=1;curveFitting=1;jiggle=2;rounded=0;" vertex="1" parent="u1z8vQ90xgdDoYZ3Qv9L-145">
          <mxGeometry y="73" width="349" height="74" as="geometry" />
        </mxCell>
        <mxCell id="u1z8vQ90xgdDoYZ3Qv9L-152" value="&lt;span style=&quot;text-align: left;&quot;&gt;Must have available materials&lt;/span&gt;" style="shape=partialRectangle;html=1;whiteSpace=wrap;connectable=0;strokeColor=inherit;overflow=hidden;fillColor=none;top=0;left=0;bottom=0;right=0;pointerEvents=1;fontStyle=1;sketch=1;curveFitting=1;jiggle=2;rounded=0;" vertex="1" parent="u1z8vQ90xgdDoYZ3Qv9L-151">
          <mxGeometry width="88" height="74" as="geometry">
            <mxRectangle width="88" height="74" as="alternateBounds" />
          </mxGeometry>
        </mxCell>
        <mxCell id="u1z8vQ90xgdDoYZ3Qv9L-153" value="&lt;span style=&quot;text-align: left;&quot;&gt;No helmet in sight&lt;/span&gt;" style="shape=partialRectangle;html=1;whiteSpace=wrap;connectable=0;strokeColor=inherit;overflow=hidden;fillColor=#f8cecc;top=1;left=1;bottom=1;right=1;pointerEvents=1;perimeter=none;labelPadding=20;rowspan=1;colspan=1;strokeWidth=2;sketch=1;curveFitting=1;jiggle=2;fillStyle=auto;rounded=0;fillWeight=2;hachureGap=4;spacing=5;" vertex="1" parent="u1z8vQ90xgdDoYZ3Qv9L-151">
          <mxGeometry x="88" width="87" height="74" as="geometry">
            <mxRectangle width="87" height="74" as="alternateBounds" />
          </mxGeometry>
        </mxCell>
        <mxCell id="u1z8vQ90xgdDoYZ3Qv9L-154" value="&lt;span style=&quot;text-align: left;&quot;&gt;I have a gun&lt;/span&gt;" style="shape=partialRectangle;html=1;whiteSpace=wrap;connectable=0;strokeColor=default;overflow=hidden;fillColor=#d5e8d4;top=1;left=1;bottom=1;right=1;pointerEvents=1;strokeWidth=2;sketch=1;curveFitting=1;jiggle=2;fillStyle=auto;rounded=0;fillWeight=2;hachureGap=4;" vertex="1" parent="u1z8vQ90xgdDoYZ3Qv9L-151">
          <mxGeometry x="175" width="86" height="74" as="geometry">
            <mxRectangle width="86" height="74" as="alternateBounds" />
          </mxGeometry>
        </mxCell>
        <mxCell id="u1z8vQ90xgdDoYZ3Qv9L-155" value="&lt;span style=&quot;text-align: left;&quot;&gt;No materials required&lt;/span&gt;" style="shape=partialRectangle;html=1;whiteSpace=wrap;connectable=0;strokeColor=inherit;overflow=hidden;fillColor=#d5e8d4;top=1;left=1;bottom=1;right=1;pointerEvents=1;strokeWidth=2;sketch=1;curveFitting=1;jiggle=2;fillStyle=auto;rounded=0;fillWeight=2;hachureGap=4;" vertex="1" parent="u1z8vQ90xgdDoYZ3Qv9L-151">
          <mxGeometry x="261" width="88" height="74" as="geometry">
            <mxRectangle width="88" height="74" as="alternateBounds" />
          </mxGeometry>
        </mxCell>
        <mxCell id="u1z8vQ90xgdDoYZ3Qv9L-156" value="" style="shape=tableRow;horizontal=0;startSize=0;swimlaneHead=0;swimlaneBody=0;strokeColor=inherit;top=0;left=0;bottom=0;right=0;collapsible=0;dropTarget=0;fillColor=none;points=[[0,0.5],[1,0.5]];portConstraint=eastwest;sketch=1;curveFitting=1;jiggle=2;rounded=0;" vertex="1" parent="u1z8vQ90xgdDoYZ3Qv9L-145">
          <mxGeometry y="147" width="349" height="73" as="geometry" />
        </mxCell>
        <mxCell id="u1z8vQ90xgdDoYZ3Qv9L-157" value="&lt;span style=&quot;text-align: left;&quot;&gt;Should be ethical&lt;/span&gt;" style="shape=partialRectangle;html=1;whiteSpace=wrap;connectable=0;strokeColor=inherit;overflow=hidden;fillColor=none;top=0;left=0;bottom=0;right=0;pointerEvents=1;fontStyle=1;sketch=1;curveFitting=1;jiggle=2;rounded=0;" vertex="1" parent="u1z8vQ90xgdDoYZ3Qv9L-156">
          <mxGeometry width="88" height="73" as="geometry">
            <mxRectangle width="88" height="73" as="alternateBounds" />
          </mxGeometry>
        </mxCell>
        <mxCell id="u1z8vQ90xgdDoYZ3Qv9L-158" value="&lt;span style=&quot;text-align: left;&quot;&gt;Helmets are all good&lt;/span&gt;" style="shape=partialRectangle;html=1;whiteSpace=wrap;connectable=0;strokeColor=default;overflow=hidden;fillColor=#d5e8d4;top=1;left=1;bottom=1;right=1;pointerEvents=1;strokeWidth=2;sketch=1;curveFitting=1;jiggle=2;fillStyle=auto;rounded=0;hachureGap=4;fillWeight=2;spacing=5;" vertex="1" parent="u1z8vQ90xgdDoYZ3Qv9L-156">
          <mxGeometry x="88" width="87" height="73" as="geometry">
            <mxRectangle width="87" height="73" as="alternateBounds" />
          </mxGeometry>
        </mxCell>
        <mxCell id="u1z8vQ90xgdDoYZ3Qv9L-159" value="&lt;span style=&quot;text-align: left;&quot;&gt;The bear should live.&lt;/span&gt;" style="shape=partialRectangle;html=1;whiteSpace=wrap;connectable=0;strokeColor=inherit;overflow=hidden;fillColor=#f8cecc;top=1;left=1;bottom=1;right=1;pointerEvents=1;strokeWidth=2;sketch=1;curveFitting=1;jiggle=2;fillStyle=auto;rounded=0;fillWeight=2;hachureGap=4;" vertex="1" parent="u1z8vQ90xgdDoYZ3Qv9L-156">
          <mxGeometry x="175" width="86" height="73" as="geometry">
            <mxRectangle width="86" height="73" as="alternateBounds" />
          </mxGeometry>
        </mxCell>
        <mxCell id="u1z8vQ90xgdDoYZ3Qv9L-160" value="&lt;span style=&quot;text-align: left;&quot;&gt;Makes you look weak&lt;/span&gt;" style="shape=partialRectangle;html=1;whiteSpace=wrap;connectable=0;strokeColor=inherit;overflow=hidden;fillColor=#fff2cc;top=1;left=1;bottom=1;right=1;pointerEvents=1;strokeWidth=2;sketch=1;curveFitting=1;jiggle=2;fillStyle=auto;rounded=0;fillWeight=2;hachureGap=4;spacing=5;" vertex="1" parent="u1z8vQ90xgdDoYZ3Qv9L-156">
          <mxGeometry x="261" width="88" height="73" as="geometry">
            <mxRectangle width="88" height="73" as="alternateBounds" />
          </mxGeometry>
        </mxCell>
        <mxCell id="u1z8vQ90xgdDoYZ3Qv9L-161" value="" style="ellipse;whiteSpace=wrap;html=1;aspect=fixed;strokeWidth=2;sketch=1;curveFitting=1;jiggle=2;rounded=0;fillColor=#d5e8d4;strokeColor=#82b366;fillStyle=solid;" vertex="1" parent="zS9yTGAl7qMEVkvHbWXX-1">
          <mxGeometry x="55" y="31.5" width="18" height="18" as="geometry" />
        </mxCell>
        <mxCell id="zS9yTGAl7qMEVkvHbWXX-15" value="" style="ellipse;whiteSpace=wrap;html=1;aspect=fixed;strokeWidth=2;sketch=1;curveFitting=1;jiggle=2;rounded=0;fillColor=#d5e8d4;strokeColor=#82b366;fillStyle=solid;" vertex="1" parent="zS9yTGAl7qMEVkvHbWXX-1">
          <mxGeometry x="317" y="249" width="18" height="18" as="geometry" />
        </mxCell>
        <mxCell id="u1z8vQ90xgdDoYZ3Qv9L-11" value="Describe" style="text;html=1;align=center;verticalAlign=middle;whiteSpace=wrap;rounded=0;fontSize=32;strokeWidth=2;spacing=10;sketch=1;curveFitting=1;jiggle=2;fontFamily=Architects Daughter;fontSource=https%3A%2F%2Ffonts.googleapis.com%2Fcss%3Ffamily%3DArchitects%2BDaughter;fontColor=default;fontStyle=1" vertex="1" parent="1">
          <mxGeometry x="-180" y="-200" width="160" height="40" as="geometry" />
        </mxCell>
        <mxCell id="u1z8vQ90xgdDoYZ3Qv9L-12" value="Diagnose" style="text;html=1;align=center;verticalAlign=middle;whiteSpace=wrap;rounded=0;fontSize=32;strokeWidth=2;fontFamily=Architects Daughter;fontColor=default;spacing=10;sketch=1;curveFitting=1;jiggle=2;fontSource=https%3A%2F%2Ffonts.googleapis.com%2Fcss%3Ffamily%3DArchitects%2BDaughter;fontStyle=1" vertex="1" parent="1">
          <mxGeometry x="-180" y="-60" width="160" height="40" as="geometry" />
        </mxCell>
        <mxCell id="u1z8vQ90xgdDoYZ3Qv9L-13" value="Delimit" style="text;html=1;align=center;verticalAlign=middle;whiteSpace=wrap;rounded=0;fontSize=32;strokeWidth=2;fontFamily=Architects Daughter;fontColor=default;spacing=10;sketch=1;curveFitting=1;jiggle=2;fontSource=https%3A%2F%2Ffonts.googleapis.com%2Fcss%3Ffamily%3DArchitects%2BDaughter;fontStyle=1" vertex="1" parent="1">
          <mxGeometry x="-180" y="80" width="162.5" height="40" as="geometry" />
        </mxCell>
        <mxCell id="u1z8vQ90xgdDoYZ3Qv9L-33" value="Direction" style="text;html=1;align=center;verticalAlign=middle;whiteSpace=wrap;rounded=0;fontSize=32;strokeWidth=2;fontFamily=Architects Daughter;fontColor=default;spacing=10;sketch=1;curveFitting=1;jiggle=2;fontSource=https%3A%2F%2Ffonts.googleapis.com%2Fcss%3Ffamily%3DArchitects%2BDaughter;fontStyle=1" vertex="1" parent="1">
          <mxGeometry x="-181.5" y="200" width="160" height="40.75" as="geometry" />
        </mxCell>
        <mxCell id="u1z8vQ90xgdDoYZ3Qv9L-42" value="Design" style="text;html=1;align=center;verticalAlign=middle;whiteSpace=wrap;rounded=0;fontSize=32;strokeWidth=2;fontFamily=Architects Daughter;fontColor=default;spacing=10;sketch=1;curveFitting=1;jiggle=2;fontSource=https%3A%2F%2Ffonts.googleapis.com%2Fcss%3Ffamily%3DArchitects%2BDaughter;fontStyle=1" vertex="1" parent="1">
          <mxGeometry x="-173" y="437.88" width="153" height="42.12" as="geometry" />
        </mxCell>
        <mxCell id="u1z8vQ90xgdDoYZ3Qv9L-165" value="Expectations" style="swimlane;horizontal=0;whiteSpace=wrap;html=1;glass=0;swimlaneHead=0;collapsible=0;strokeWidth=2;sketch=1;curveFitting=1;jiggle=2;fontSize=20;spacingTop=-4;rounded=0;fontFamily=Architects Daughter;fontSource=https%3A%2F%2Ffonts.gstatic.com%2Fs%2Farchitectsdaughter%2Fv18%2FKtkxAKiDZI_td1Lkx62xHZHDtgO_Y-bvTYlg4w.woff2;swimlaneFillColor=#E6E6E6;hachureAngle=-33;hachureGap=5;fillWeight=4;fillColor=none;" vertex="1" parent="1">
          <mxGeometry x="0.5" y="-400" width="539.5" height="135" as="geometry" />
        </mxCell>
        <mxCell id="u1z8vQ90xgdDoYZ3Qv9L-92" value="I don&#39;t want to feel pain" style="rounded=0;whiteSpace=wrap;html=1;strokeWidth=2;dashed=1;sketch=1;curveFitting=1;jiggle=2;fontStyle=1" vertex="1" parent="u1z8vQ90xgdDoYZ3Qv9L-165">
          <mxGeometry x="219.75" y="37.5" width="120" height="60" as="geometry" />
        </mxCell>
        <mxCell id="u1z8vQ90xgdDoYZ3Qv9L-166" value="Symptoms" style="swimlane;horizontal=0;whiteSpace=wrap;html=1;glass=0;swimlaneHead=0;collapsible=0;strokeWidth=2;sketch=1;curveFitting=1;jiggle=2;fontSize=20;spacingTop=-4;rounded=0;fontFamily=Architects Daughter;fontSource=https%3A%2F%2Ffonts.gstatic.com%2Fs%2Farchitectsdaughter%2Fv18%2FKtkxAKiDZI_td1Lkx62xHZHDtgO_Y-bvTYlg4w.woff2;hachureGap=5;swimlaneFillColor=#E6E6E6;fillWeight=4;fillColor=none;" vertex="1" parent="1">
          <mxGeometry x="0.5" y="-250" width="539.5" height="135" as="geometry" />
        </mxCell>
        <mxCell id="u1z8vQ90xgdDoYZ3Qv9L-2" value="My head hurts. I have a headache" style="rounded=0;whiteSpace=wrap;html=1;strokeWidth=2;sketch=1;curveFitting=1;jiggle=2;fontStyle=1" vertex="1" parent="u1z8vQ90xgdDoYZ3Qv9L-166">
          <mxGeometry x="202" y="40" width="155.5" height="60" as="geometry" />
        </mxCell>
        <mxCell id="u1z8vQ90xgdDoYZ3Qv9L-167" value="Problems" style="swimlane;horizontal=0;whiteSpace=wrap;html=1;glass=0;swimlaneHead=0;collapsible=0;strokeWidth=2;sketch=1;curveFitting=1;jiggle=2;fontSize=20;spacingTop=-4;rounded=0;fontFamily=Architects Daughter;fontSource=https%3A%2F%2Ffonts.gstatic.com%2Fs%2Farchitectsdaughter%2Fv18%2FKtkxAKiDZI_td1Lkx62xHZHDtgO_Y-bvTYlg4w.woff2;swimlaneFillColor=#E6E6E6;hachureGap=5;fillWeight=4;fillColor=none;" vertex="1" parent="1">
          <mxGeometry x="0.5" y="-99" width="539.5" height="135" as="geometry" />
        </mxCell>
        <mxCell id="u1z8vQ90xgdDoYZ3Qv9L-5" value="Your hormones have dropped" style="rounded=0;whiteSpace=wrap;html=1;strokeWidth=2;spacing=5;sketch=1;curveFitting=1;jiggle=2;fontStyle=1" vertex="1" parent="u1z8vQ90xgdDoYZ3Qv9L-167">
          <mxGeometry x="49.5" y="39.3" width="140" height="60" as="geometry" />
        </mxCell>
        <mxCell id="u1z8vQ90xgdDoYZ3Qv9L-7" value="Your optical perscription is out of date." style="rounded=0;whiteSpace=wrap;html=1;strokeWidth=2;spacing=5;sketch=1;curveFitting=1;jiggle=2;fontStyle=1" vertex="1" parent="u1z8vQ90xgdDoYZ3Qv9L-167">
          <mxGeometry x="209.75" y="39.3" width="140" height="60" as="geometry" />
        </mxCell>
        <mxCell id="u1z8vQ90xgdDoYZ3Qv9L-9" value="A bear is chewing on your head." style="rounded=0;whiteSpace=wrap;html=1;strokeWidth=2;spacing=5;sketch=1;curveFitting=1;jiggle=2;fontStyle=1" vertex="1" parent="u1z8vQ90xgdDoYZ3Qv9L-167">
          <mxGeometry x="369.5" y="39.3" width="140" height="60" as="geometry" />
        </mxCell>
        <mxCell id="u1z8vQ90xgdDoYZ3Qv9L-180" value="Plan" style="swimlane;horizontal=0;whiteSpace=wrap;html=1;glass=0;swimlaneHead=0;collapsible=0;strokeWidth=2;sketch=1;curveFitting=1;jiggle=2;fontSize=20;spacingTop=-4;rounded=0;fontFamily=Architects Daughter;fontSource=https%3A%2F%2Ffonts.gstatic.com%2Fs%2Farchitectsdaughter%2Fv18%2FKtkxAKiDZI_td1Lkx62xHZHDtgO_Y-bvTYlg4w.woff2;swimlaneFillColor=#E6E6E6;hachureGap=5;fillWeight=4;fillColor=none;" vertex="1" parent="1">
          <mxGeometry x="0.5" y="390" width="539.5" height="135" as="geometry" />
        </mxCell>
        <mxCell id="u1z8vQ90xgdDoYZ3Qv9L-43" value="1. Remove head from mouth&lt;div&gt;2. Run in the opposite direction&lt;/div&gt;&lt;div&gt;3. Find a doctor&lt;/div&gt;" style="rounded=0;whiteSpace=wrap;html=1;strokeWidth=2;align=left;spacing=10;sketch=1;curveFitting=1;jiggle=2;fontStyle=1" vertex="1" parent="u1z8vQ90xgdDoYZ3Qv9L-180">
          <mxGeometry x="178.5" y="40" width="209.5" height="70" as="geometry" />
        </mxCell>
        <mxCell id="zS9yTGAl7qMEVkvHbWXX-19" value="&amp;nbsp;Design Process&amp;nbsp;" style="text;html=1;align=center;verticalAlign=middle;whiteSpace=wrap;rounded=0;fontSize=48;strokeWidth=2;fontFamily=Architects Daughter;fontColor=default;spacing=10;sketch=1;curveFitting=1;jiggle=2;fontSource=https%3A%2F%2Ffonts.googleapis.com%2Fcss%3Ffamily%3DArchitects%2BDaughter;fontStyle=5" vertex="1" parent="1">
          <mxGeometry x="0.5" y="-480" width="559.5" height="55.25" as="geometry" />
        </mxCell>
        <mxCell id="zS9yTGAl7qMEVkvHbWXX-21" value="" style="shape=singleArrow;direction=south;whiteSpace=wrap;html=1;sketch=1;hachureGap=5;jiggle=2;curveFitting=1;fontFamily=Architects Daughter;fontSource=https%3A%2F%2Ffonts.googleapis.com%2Fcss%3Ffamily%3DArchitects%2BDaughter;strokeWidth=2;fillColor=#D5E8D4;fillWeight=3;arrowWidth=0.4492063492063465;arrowSize=0.20666666666666714;" vertex="1" parent="1">
          <mxGeometry x="-115" y="-150" width="41" height="90" as="geometry" />
        </mxCell>
        <mxCell id="zS9yTGAl7qMEVkvHbWXX-22" value="" style="shape=singleArrow;direction=south;whiteSpace=wrap;html=1;sketch=1;hachureGap=5;jiggle=2;curveFitting=1;fontFamily=Architects Daughter;fontSource=https%3A%2F%2Ffonts.googleapis.com%2Fcss%3Ffamily%3DArchitects%2BDaughter;strokeWidth=2;fillColor=#D5E8D4;fillWeight=3;arrowWidth=0.4492063492063465;arrowSize=0.20666666666666714;" vertex="1" parent="1">
          <mxGeometry x="-115" width="41" height="70" as="geometry" />
        </mxCell>
        <mxCell id="zS9yTGAl7qMEVkvHbWXX-23" value="" style="shape=singleArrow;direction=south;whiteSpace=wrap;html=1;sketch=1;hachureGap=5;jiggle=2;curveFitting=1;fontFamily=Architects Daughter;fontSource=https%3A%2F%2Ffonts.googleapis.com%2Fcss%3Ffamily%3DArchitects%2BDaughter;strokeWidth=2;fillColor=#D5E8D4;fillWeight=3;arrowWidth=0.4492063492063465;arrowSize=0.20666666666666714;" vertex="1" parent="1">
          <mxGeometry x="-115" y="130" width="41" height="60" as="geometry" />
        </mxCell>
        <mxCell id="zS9yTGAl7qMEVkvHbWXX-24" value="" style="shape=singleArrow;direction=south;whiteSpace=wrap;html=1;sketch=1;hachureGap=5;jiggle=2;curveFitting=1;fontFamily=Architects Daughter;fontSource=https%3A%2F%2Ffonts.googleapis.com%2Fcss%3Ffamily%3DArchitects%2BDaughter;strokeWidth=2;fillColor=#D5E8D4;fillWeight=3;arrowWidth=0.4425087108013929;arrowSize=0.12483185364541413;" vertex="1" parent="1">
          <mxGeometry x="-115" y="250" width="41" height="180" as="geometry" />
        </mxCell>
        <mxCell id="zS9yTGAl7qMEVkvHbWXX-25" value="Situation" style="text;html=1;align=center;verticalAlign=middle;whiteSpace=wrap;rounded=0;fontSize=32;strokeWidth=2;spacing=10;sketch=1;curveFitting=1;jiggle=2;fontFamily=Architects Daughter;fontSource=https%3A%2F%2Ffonts.googleapis.com%2Fcss%3Ffamily%3DArchitects%2BDaughter;fontColor=default;fontStyle=0" vertex="1" parent="1">
          <mxGeometry x="-181.5" y="-369" width="174" height="64.75" as="geometry" />
        </mxCell>
        <mxCell id="zS9yTGAl7qMEVkvHbWXX-26" value="" style="shape=singleArrow;direction=south;whiteSpace=wrap;html=1;sketch=1;hachureGap=5;jiggle=2;curveFitting=1;fontFamily=Architects Daughter;fontSource=https%3A%2F%2Ffonts.googleapis.com%2Fcss%3Ffamily%3DArchitects%2BDaughter;strokeWidth=2;fillColor=#D5E8D4;fillWeight=3;arrowWidth=0.4492063492063465;arrowSize=0.20666666666666714;dashed=1;" vertex="1" parent="1">
          <mxGeometry x="-115" y="-310" width="41" height="100" as="geometry" />
        </mxCell>
        <mxCell id="u1z8vQ90xgdDoYZ3Qv9L-6" value="" style="edgeStyle=none;curved=1;rounded=0;orthogonalLoop=1;jettySize=auto;html=1;fontSize=12;startSize=8;endSize=8;strokeWidth=2;sketch=1;curveFitting=1;jiggle=2;" edge="1" parent="1" source="u1z8vQ90xgdDoYZ3Qv9L-2" target="u1z8vQ90xgdDoYZ3Qv9L-5">
          <mxGeometry relative="1" as="geometry">
            <Array as="points">
              <mxPoint x="232" y="-121" />
              <mxPoint x="140" y="-86" />
            </Array>
          </mxGeometry>
        </mxCell>
        <mxCell id="u1z8vQ90xgdDoYZ3Qv9L-8" style="edgeStyle=none;curved=1;rounded=0;orthogonalLoop=1;jettySize=auto;html=1;fontSize=12;startSize=8;endSize=8;strokeWidth=2;sketch=1;curveFitting=1;jiggle=2;" edge="1" parent="1" source="u1z8vQ90xgdDoYZ3Qv9L-2" target="u1z8vQ90xgdDoYZ3Qv9L-7">
          <mxGeometry relative="1" as="geometry" />
        </mxCell>
        <mxCell id="u1z8vQ90xgdDoYZ3Qv9L-10" style="edgeStyle=none;curved=1;rounded=0;orthogonalLoop=1;jettySize=auto;html=1;fontSize=12;startSize=8;endSize=8;strokeWidth=3;sketch=1;curveFitting=1;jiggle=2;fillColor=#d5e8d4;strokeColor=#82b366;" edge="1" parent="1" source="u1z8vQ90xgdDoYZ3Qv9L-2" target="u1z8vQ90xgdDoYZ3Qv9L-9">
          <mxGeometry relative="1" as="geometry">
            <Array as="points">
              <mxPoint x="335" y="-115" />
              <mxPoint x="437" y="-95" />
            </Array>
          </mxGeometry>
        </mxCell>
        <mxCell id="u1z8vQ90xgdDoYZ3Qv9L-93" style="edgeStyle=none;curved=1;rounded=0;orthogonalLoop=1;jettySize=auto;html=1;fontSize=12;startSize=8;endSize=8;strokeWidth=3;sketch=1;curveFitting=1;jiggle=2;fillColor=#d5e8d4;strokeColor=#82b366;" edge="1" parent="1" source="u1z8vQ90xgdDoYZ3Qv9L-92" target="u1z8vQ90xgdDoYZ3Qv9L-2">
          <mxGeometry relative="1" as="geometry" />
        </mxCell>
        <mxCell id="u1z8vQ90xgdDoYZ3Qv9L-45" style="edgeStyle=none;curved=1;rounded=0;orthogonalLoop=1;jettySize=auto;html=1;fontSize=12;startSize=8;endSize=8;strokeWidth=3;sketch=1;curveFitting=1;jiggle=2;fillColor=#d5e8d4;strokeColor=#82b366;" edge="1" parent="1" source="u1z8vQ90xgdDoYZ3Qv9L-9" target="u1z8vQ90xgdDoYZ3Qv9L-161">
          <mxGeometry relative="1" as="geometry">
            <mxPoint x="407" y="32.97752808988753" as="targetPoint" />
            <Array as="points">
              <mxPoint x="420" y="70" />
              <mxPoint x="200" y="50" />
            </Array>
          </mxGeometry>
        </mxCell>
        <mxCell id="u1z8vQ90xgdDoYZ3Qv9L-44" style="edgeStyle=none;curved=1;rounded=0;orthogonalLoop=1;jettySize=auto;html=1;fontSize=12;startSize=8;endSize=8;strokeWidth=3;sketch=1;curveFitting=1;jiggle=2;fillColor=#d5e8d4;strokeColor=#82b366;" edge="1" parent="1" source="zS9yTGAl7qMEVkvHbWXX-15" target="u1z8vQ90xgdDoYZ3Qv9L-43">
          <mxGeometry relative="1" as="geometry">
            <mxPoint x="402.6823104693142" y="360.0000000000002" as="sourcePoint" />
            <Array as="points">
              <mxPoint x="420" y="410" />
              <mxPoint x="280" y="390" />
            </Array>
          </mxGeometry>
        </mxCell>
        <mxCell id="zS9yTGAl7qMEVkvHbWXX-27" value="" style="rounded=0;whiteSpace=wrap;html=1;sketch=1;hachureGap=12;jiggle=15;curveFitting=1;fontFamily=Architects Daughter;fontSource=https%3A%2F%2Ffonts.googleapis.com%2Fcss%3Ffamily%3DArchitects%2BDaughter;fillStyle=hachure;strokeColor=none;fillWeight=2;hachureAngle=180;fillColor=#FFFFFF;" vertex="1" parent="1">
          <mxGeometry x="-180" y="-360" width="160" height="40" as="geometry" />
        </mxCell>
      </root>
    </mxGraphModel>
  </diagram>
</mxfile>
